<mxfile host="app.diagrams.net" modified="2022-03-01T05:32:23.803Z" agent="5.0 (Windows NT 10.0; Win64; x64) AppleWebKit/537.36 (KHTML, like Gecko) Chrome/98.0.4758.102 Safari/537.36" etag="4PYVm2c5axAfE-ImOV3I" version="16.6.4" type="github">
  <diagram id="0YO4q45qK2cxMAk0PEHQ" name="Page-1">
    <mxGraphModel dx="782" dy="345" grid="1" gridSize="10" guides="1" tooltips="1" connect="1" arrows="1" fold="1" page="1" pageScale="1" pageWidth="850" pageHeight="1100" math="0" shadow="0">
      <root>
        <mxCell id="0" />
        <mxCell id="1" parent="0" />
        <mxCell id="yixYYZR7p3-tDQ7YvWht-1" value="Dental Clinic" style="swimlane;childLayout=stackLayout;horizontal=1;startSize=30;horizontalStack=0;rounded=1;fontSize=14;fontStyle=0;strokeWidth=2;resizeParent=0;resizeLast=1;shadow=0;dashed=0;align=center;" parent="1" vertex="1">
          <mxGeometry x="40" y="40" width="160" height="120" as="geometry" />
        </mxCell>
        <mxCell id="yixYYZR7p3-tDQ7YvWht-2" value="&lt;u&gt;+clinic_id&lt;/u&gt;&lt;br&gt;+name&lt;br&gt;&lt;div&gt;+phone_number&lt;/div&gt;&lt;div&gt;+email&lt;/div&gt;&lt;div&gt;+mailing_address&lt;br&gt;&lt;/div&gt;" style="align=left;strokeColor=none;fillColor=none;spacingLeft=4;fontSize=12;verticalAlign=top;resizable=0;rotatable=0;part=1;html=1;" parent="yixYYZR7p3-tDQ7YvWht-1" vertex="1">
          <mxGeometry y="30" width="160" height="90" as="geometry" />
        </mxCell>
        <mxCell id="yixYYZR7p3-tDQ7YvWht-4" value="Dentists" style="swimlane;childLayout=stackLayout;horizontal=1;startSize=30;horizontalStack=0;rounded=1;fontSize=14;fontStyle=0;strokeWidth=2;resizeParent=0;resizeLast=1;shadow=0;dashed=0;align=center;" parent="1" vertex="1">
          <mxGeometry x="240" y="290" width="160" height="120" as="geometry" />
        </mxCell>
        <mxCell id="yixYYZR7p3-tDQ7YvWht-5" value="&lt;u&gt;+dentist_id&lt;/u&gt;&lt;br&gt;+name&lt;br&gt;&lt;div&gt;+phone_number&lt;/div&gt;&lt;div&gt;+email&lt;/div&gt;&lt;div&gt;+mailing_address&lt;br&gt;&lt;/div&gt;" style="align=left;strokeColor=none;fillColor=none;spacingLeft=4;fontSize=12;verticalAlign=top;resizable=0;rotatable=0;part=1;html=1;" parent="yixYYZR7p3-tDQ7YvWht-4" vertex="1">
          <mxGeometry y="30" width="160" height="90" as="geometry" />
        </mxCell>
        <mxCell id="yixYYZR7p3-tDQ7YvWht-6" value="Patients" style="swimlane;childLayout=stackLayout;horizontal=1;startSize=30;horizontalStack=0;rounded=1;fontSize=14;fontStyle=0;strokeWidth=2;resizeParent=0;resizeLast=1;shadow=0;dashed=0;align=center;" parent="1" vertex="1">
          <mxGeometry x="440" y="40" width="160" height="120" as="geometry" />
        </mxCell>
        <mxCell id="yixYYZR7p3-tDQ7YvWht-7" value="&lt;u&gt;+patient_id&lt;/u&gt;&lt;br&gt;+name&lt;br&gt;&lt;div&gt;+phone_number&lt;/div&gt;&lt;div&gt;+email&lt;/div&gt;&lt;div&gt;+mailing_address&lt;br&gt;&lt;/div&gt;" style="align=left;strokeColor=none;fillColor=none;spacingLeft=4;fontSize=12;verticalAlign=top;resizable=0;rotatable=0;part=1;html=1;" parent="yixYYZR7p3-tDQ7YvWht-6" vertex="1">
          <mxGeometry y="30" width="160" height="90" as="geometry" />
        </mxCell>
        <mxCell id="yixYYZR7p3-tDQ7YvWht-8" value="Dental Assistants" style="swimlane;childLayout=stackLayout;horizontal=1;startSize=30;horizontalStack=0;rounded=1;fontSize=14;fontStyle=0;strokeWidth=2;resizeParent=0;resizeLast=1;shadow=0;dashed=0;align=center;" parent="1" vertex="1">
          <mxGeometry x="40" y="201" width="160" height="120" as="geometry" />
        </mxCell>
        <mxCell id="yixYYZR7p3-tDQ7YvWht-9" value="&lt;u&gt;+dentist_id&lt;/u&gt;&lt;br&gt;+name&lt;br&gt;&lt;div&gt;+phone_number&lt;/div&gt;&lt;div&gt;+email&lt;/div&gt;&lt;div&gt;+mailing_address&lt;br&gt;&lt;/div&gt;" style="align=left;strokeColor=none;fillColor=none;spacingLeft=4;fontSize=12;verticalAlign=top;resizable=0;rotatable=0;part=1;html=1;" parent="yixYYZR7p3-tDQ7YvWht-8" vertex="1">
          <mxGeometry y="30" width="160" height="90" as="geometry" />
        </mxCell>
        <mxCell id="yixYYZR7p3-tDQ7YvWht-10" value="Treatments " style="swimlane;childLayout=stackLayout;horizontal=1;startSize=30;horizontalStack=0;rounded=1;fontSize=14;fontStyle=0;strokeWidth=2;resizeParent=0;resizeLast=1;shadow=0;dashed=0;align=center;" parent="1" vertex="1">
          <mxGeometry x="10" y="420" width="160" height="120" as="geometry" />
        </mxCell>
        <mxCell id="yixYYZR7p3-tDQ7YvWht-11" value="&lt;u&gt;+dentist_id&lt;/u&gt;&lt;br&gt;+name&lt;br&gt;&lt;div&gt;+phone_number&lt;/div&gt;&lt;div&gt;+email&lt;/div&gt;&lt;div&gt;+mailing_address&lt;br&gt;&lt;/div&gt;" style="align=left;strokeColor=none;fillColor=none;spacingLeft=4;fontSize=12;verticalAlign=top;resizable=0;rotatable=0;part=1;html=1;" parent="yixYYZR7p3-tDQ7YvWht-10" vertex="1">
          <mxGeometry y="30" width="160" height="90" as="geometry" />
        </mxCell>
        <mxCell id="yixYYZR7p3-tDQ7YvWht-12" value="Appointments" style="swimlane;childLayout=stackLayout;horizontal=1;startSize=30;horizontalStack=0;rounded=1;fontSize=14;fontStyle=0;strokeWidth=2;resizeParent=0;resizeLast=1;shadow=0;dashed=0;align=center;" parent="1" vertex="1">
          <mxGeometry x="440" y="200" width="160" height="120" as="geometry" />
        </mxCell>
        <mxCell id="yixYYZR7p3-tDQ7YvWht-13" value="&lt;u&gt;+patient_id&lt;/u&gt;&lt;br&gt;+name&lt;br&gt;&lt;div&gt;+phone_number&lt;/div&gt;&lt;div&gt;+email&lt;/div&gt;&lt;div&gt;+mailing_address&lt;br&gt;&lt;/div&gt;" style="align=left;strokeColor=none;fillColor=none;spacingLeft=4;fontSize=12;verticalAlign=top;resizable=0;rotatable=0;part=1;html=1;" parent="yixYYZR7p3-tDQ7YvWht-12" vertex="1">
          <mxGeometry y="30" width="160" height="90" as="geometry" />
        </mxCell>
        <mxCell id="yixYYZR7p3-tDQ7YvWht-14" value="Bills" style="swimlane;childLayout=stackLayout;horizontal=1;startSize=30;horizontalStack=0;rounded=1;fontSize=14;fontStyle=0;strokeWidth=2;resizeParent=0;resizeLast=1;shadow=0;align=center;fillColor=none;" parent="1" vertex="1">
          <mxGeometry x="220" y="490" width="160" height="120" as="geometry" />
        </mxCell>
        <mxCell id="yixYYZR7p3-tDQ7YvWht-15" value="&lt;u&gt;+patient_id&lt;/u&gt;&lt;br&gt;+name&lt;br&gt;&lt;div&gt;+phone_number&lt;/div&gt;&lt;div&gt;+email&lt;/div&gt;&lt;div&gt;+mailing_address&lt;br&gt;&lt;/div&gt;" style="align=left;strokeColor=none;fillColor=none;spacingLeft=4;fontSize=12;verticalAlign=top;resizable=0;rotatable=0;part=1;html=1;" parent="yixYYZR7p3-tDQ7YvWht-14" vertex="1">
          <mxGeometry y="30" width="160" height="90" as="geometry" />
        </mxCell>
        <mxCell id="yixYYZR7p3-tDQ7YvWht-17" style="rounded=0;orthogonalLoop=1;jettySize=auto;html=1;entryX=1;entryY=0;entryDx=0;entryDy=0;endArrow=none;endFill=0;" parent="1" source="yixYYZR7p3-tDQ7YvWht-16" target="yixYYZR7p3-tDQ7YvWht-2" edge="1">
          <mxGeometry relative="1" as="geometry" />
        </mxCell>
        <mxCell id="yixYYZR7p3-tDQ7YvWht-18" style="edgeStyle=none;rounded=0;orthogonalLoop=1;jettySize=auto;html=1;entryX=0;entryY=0;entryDx=0;entryDy=0;endArrow=none;endFill=0;" parent="1" source="yixYYZR7p3-tDQ7YvWht-16" target="yixYYZR7p3-tDQ7YvWht-7" edge="1">
          <mxGeometry relative="1" as="geometry" />
        </mxCell>
        <mxCell id="yixYYZR7p3-tDQ7YvWht-16" value="Visits" style="shape=rhombus;perimeter=rhombusPerimeter;whiteSpace=wrap;html=1;align=center;" parent="1" vertex="1">
          <mxGeometry x="250" y="40" width="120" height="60" as="geometry" />
        </mxCell>
        <mxCell id="_nI5DZy2AJyz_5Zyf3im-6" value="Receptionist" style="swimlane;childLayout=stackLayout;horizontal=1;startSize=30;horizontalStack=0;rounded=1;fontSize=14;fontStyle=0;strokeWidth=2;resizeParent=0;resizeLast=1;shadow=0;dashed=0;align=center;" vertex="1" parent="1">
          <mxGeometry x="620" y="330" width="160" height="120" as="geometry" />
        </mxCell>
        <mxCell id="_nI5DZy2AJyz_5Zyf3im-7" value="&lt;u&gt;+Receptionist_id&lt;/u&gt;&lt;br&gt;+name&lt;br&gt;&lt;div&gt;+phone_number&lt;/div&gt;&lt;div&gt;+email&lt;/div&gt;&lt;div&gt;+mailing_address&lt;br&gt;&lt;/div&gt;" style="align=left;strokeColor=none;fillColor=none;spacingLeft=4;fontSize=12;verticalAlign=top;resizable=0;rotatable=0;part=1;html=1;" vertex="1" parent="_nI5DZy2AJyz_5Zyf3im-6">
          <mxGeometry y="30" width="160" height="90" as="geometry" />
        </mxCell>
        <mxCell id="_nI5DZy2AJyz_5Zyf3im-9" value="" style="endArrow=classic;html=1;rounded=1;sketch=0;curved=0;entryX=0;entryY=0;entryDx=0;entryDy=0;exitX=0.875;exitY=0.404;exitDx=0;exitDy=0;exitPerimeter=0;startArrow=none;" edge="1" parent="1" source="_nI5DZy2AJyz_5Zyf3im-10" target="_nI5DZy2AJyz_5Zyf3im-7">
          <mxGeometry width="50" height="50" relative="1" as="geometry">
            <mxPoint x="420" y="430" as="sourcePoint" />
            <mxPoint x="470" y="380" as="targetPoint" />
          </mxGeometry>
        </mxCell>
        <mxCell id="_nI5DZy2AJyz_5Zyf3im-10" value="Processes" style="rhombus;whiteSpace=wrap;html=1;rounded=0;sketch=0;" vertex="1" parent="1">
          <mxGeometry x="480" y="450" width="80" height="80" as="geometry" />
        </mxCell>
        <mxCell id="_nI5DZy2AJyz_5Zyf3im-11" value="" style="endArrow=none;html=1;rounded=1;sketch=0;curved=0;entryX=0;entryY=0;entryDx=0;entryDy=0;exitX=1;exitY=0.337;exitDx=0;exitDy=0;exitPerimeter=0;" edge="1" parent="1" source="yixYYZR7p3-tDQ7YvWht-15" target="_nI5DZy2AJyz_5Zyf3im-10">
          <mxGeometry width="50" height="50" relative="1" as="geometry">
            <mxPoint x="410" y="420.33000000000004" as="sourcePoint" />
            <mxPoint x="620" y="380" as="targetPoint" />
          </mxGeometry>
        </mxCell>
      </root>
    </mxGraphModel>
  </diagram>
</mxfile>
